<?xml version="1.0" encoding="UTF-8" standalone="no"?>
<!-- Created with Inkscape (http://www.inkscape.org/) -->

<svg
   xmlns:dc="http://purl.org/dc/elements/1.1/"
   xmlns:cc="http://creativecommons.org/ns#"
   xmlns:rdf="http://www.w3.org/1999/02/22-rdf-syntax-ns#"
   xmlns:svg="http://www.w3.org/2000/svg"
   xmlns="http://www.w3.org/2000/svg"
   xmlns:sodipodi="http://sodipodi.sourceforge.net/DTD/sodipodi-0.dtd"
   xmlns:inkscape="http://www.inkscape.org/namespaces/inkscape"
   width="3419.2927"
   height="3846.6648"
   id="svg4006"
   version="1.1"
   inkscape:version="0.48.4 r9939"
   sodipodi:docname="apply_resistance.svg">
  <defs
     id="defs4008" />
  <sodipodi:namedview
     id="base"
     pagecolor="#ffffff"
     bordercolor="#666666"
     borderopacity="1.0"
     inkscape:pageopacity="0.0"
     inkscape:pageshadow="2"
     inkscape:zoom="0.059403925"
     inkscape:cx="1670.8116"
     inkscape:cy="1911.1183"
     inkscape:document-units="px"
     inkscape:current-layer="layer1"
     showgrid="false"
     inkscape:snap-bbox="true"
     inkscape:window-width="1280"
     inkscape:window-height="749"
     inkscape:window-x="0"
     inkscape:window-y="26"
     inkscape:window-maximized="1"
     fit-margin-top="0"
     fit-margin-left="0"
     fit-margin-right="0"
     fit-margin-bottom="0">
    <inkscape:grid
       type="xygrid"
       id="grid7443"
       empspacing="5"
       visible="true"
       enabled="true"
       snapvisiblegridlinesonly="true"
       originx="3569.2089px"
       originy="-6576.9205px" />
  </sodipodi:namedview>
  <metadata
     id="metadata4011">
    <rdf:RDF>
      <cc:Work
         rdf:about="">
        <dc:format>image/svg+xml</dc:format>
        <dc:type
           rdf:resource="http://purl.org/dc/dcmitype/StillImage" />
        <dc:title></dc:title>
      </cc:Work>
    </rdf:RDF>
  </metadata>
  <g
     inkscape:label="Layer 1"
     inkscape:groupmode="layer"
     id="layer1"
     transform="translate(3569.2089,9371.223)">
    <path
       style="fill:#000000"
       d="M 741.84375 407.40625 C 533.77195 407.40625 362.15625 579.02195 362.15625 787.09375 L 362.15625 1439.4062 L 362.15625 2181.6562 L 362.15625 2508.0938 L 362.15625 3059.5312 C 362.15625 3267.6031 533.77195 3439.25 741.84375 3439.25 L 1214.0625 3439.25 L 1734.4062 3439.25 L 1863.0938 3439.25 L 2094.7188 3439.25 L 2677.4375 3439.25 C 2885.5093 3439.25 3057.1562 3267.6031 3057.1562 3059.5312 L 3057.1562 2541.7812 L 3057.1562 2305.75 L 3057.1562 1439.4062 L 3057.1562 787.09375 C 3057.1562 579.02195 2885.5093 407.40625 2677.4375 407.40625 L 741.84375 407.40625 z M 741.84375 671.53125 L 2677.4375 671.53125 C 2743.7434 671.53125 2793 720.78785 2793 787.09375 L 2793 1987.2812 L 2714.3125 1985.5625 L 2656.4688 2276.875 L 2656.7188 2277.25 C 2594.4868 2286.1249 2533.2397 2301.2283 2473.9375 2322.0938 L 2474.0625 2321.4688 L 2288.4062 2089.6875 L 2106.875 2189.1562 L 2202.5625 2470.5312 C 2153.777 2508.7501 2108.3536 2552.1534 2067.0312 2600.4688 L 2066.9688 2600.1875 L 1790.1562 2492.2188 L 1682.6875 2669.25 L 1906.1562 2865.0312 L 1906.4062 2864.9688 C 1882.6019 2923.9153 1865.0936 2984.2398 1853.6875 3045.1562 L 1559.8438 3090.0938 L 1557.9688 3175.0938 L 1485.9375 3175.0938 C 1485.933 3175.0105 1485.9421 3174.9268 1485.9375 3174.8438 L 1470.0625 3174.8438 C 1468.9963 3153.1203 1467.2316 3131.5363 1464.7188 3110.0938 L 1731.7188 2979.8438 L 1674.7188 2780.9375 L 1379.2188 2812.2812 C 1352.3087 2755.6348 1319.8708 2701.6617 1282.4375 2651.3438 L 1448.7812 2405.2188 L 1299.875 2261.4375 L 1059.5938 2436.4375 C 1008.5636 2401.1994 953.55145 2370.6605 895.09375 2345.5625 L 895.3125 2345.4375 L 916.15625 2049.0312 L 715.40625 1999.0625 L 626.28125 2199.8125 L 626.28125 787.09375 C 626.28125 720.78785 675.53785 671.53125 741.84375 671.53125 z M 2068 1137.1562 C 2019.3693 1167.8515 1980.1898 1204.2524 1954.5312 1248.8438 C 1920.4759 1308.0285 1910.2419 1381.6233 1933.3125 1475.375 C 1939.1886 1499.2535 1846.5625 1672.2812 1846.5625 1672.2812 C 1830.5793 1699.1748 1813.4492 1725.3837 1796.75 1751.8438 C 1796.75 1751.8438 1678.6445 1925.1025 1657.2188 1930.375 C 1582.0887 1948.8631 1522.2867 1974.8277 1490.0938 2030.3438 C 1458.8909 2084.1509 1453.6438 2165.7016 1485.5 2295.1562 L 1522.4062 2303.5 L 1578.5625 2106.625 C 1660.7559 2086.3988 1734.6063 2103.1078 1793.9062 2166.9688 L 1737.75 2363.8438 L 1756.2188 2368.0312 C 1869.3954 2296.5948 1931.3588 2194.1683 1890.9062 2029.7812 C 1877.4891 2024.0517 1939.6036 1894.4552 1973.9375 1839.5 C 1988.6735 1815.9135 1998.4499 1797.016 2012.3125 1776.8125 C 2060.2969 1706.8783 2144.8683 1580.22 2166.9688 1574.7812 C 2314.9169 1538.3744 2403.4425 1473.0186 2338.7188 1210 L 2301.7812 1201.6562 L 2245.6562 1398.5312 C 2163.4628 1418.7575 2089.6127 1402.0486 2030.3125 1338.1875 L 2086.4688 1141.3125 L 2068 1137.1562 z M 2786.3438 2491.3125 C 2788.561 2491.2977 2790.7817 2491.307 2793 2491.3125 L 2793 3059.5312 C 2793 3125.8374 2743.7434 3175.0938 2677.4375 3175.0938 L 2062.4688 3175.0938 C 2069.5323 3060.9423 2103.6403 2946.7777 2167.125 2842.2188 C 2294.5307 2632.3823 2510.8713 2509.728 2738.3438 2493.2188 C 2754.2922 2492.0611 2770.3126 2491.4193 2786.3438 2491.3125 z M 626.28125 2499.4688 C 648.87523 2502.8899 671.5019 2507.3996 694.125 2513.0312 C 1010.4694 2591.7812 1226.7911 2865.9537 1246.25 3174.8438 L 1245.3438 3174.8438 C 1245.3492 3174.9272 1245.3691 3175.01 1245.375 3175.0938 L 741.84375 3175.0938 C 675.53785 3175.0938 626.28125 3125.8374 626.28125 3059.5312 L 626.28125 2499.4688 z "
       transform="translate(-3569.2089,-9371.223)"
       id="path3084" />
  </g>
</svg>
